<?xml version="1.0" encoding="UTF-8" standalone="no"?>
<!-- Generator: Adobe Illustrator 25.2.0, SVG Export Plug-In . SVG Version: 6.00 Build 0)  -->
<svg version="1.1" id="Calque_1" x="0px" y="0px" viewBox="0 0 349.10001 289.45517" xml:space="preserve" width="349.10001" height="289.45517" xmlns="http://www.w3.org/2000/svg" xmlns:svg="http://www.w3.org/2000/svg">
<defs id="defs23" />
<style type="text/css" id="style1">
	.st1{display:none;}
	.st2{fill:none;stroke:#FF9F00;stroke-width:8;stroke-linecap:round;stroke-miterlimit:10;}
	.st3{fill:#FFFFFF;stroke:#000000;stroke-width:13.0006;stroke-miterlimit:10.0005;}
	.st4{fill:#FFFFFF;}
	.st5{fill:#FFFFFF;stroke:#000000;stroke-width:13;stroke-linecap:round;stroke-miterlimit:10;}
	.st6{fill:none;stroke:#FF0000;stroke-width:8;stroke-miterlimit:10;}
	.st7{fill:none;stroke:#000000;stroke-width:8;stroke-miterlimit:10;}
	.st8{fill:none;stroke:#000000;stroke-width:9;stroke-miterlimit:10;}
	.st9{fill:none;stroke:#000000;stroke-width:9;stroke-linecap:round;stroke-miterlimit:10;}
	.st10{fill:none;stroke:#FFFFFF;stroke-width:13;stroke-miterlimit:10;}
	.st11{fill:#FF9F00;stroke:#000000;stroke-width:9;stroke-miterlimit:10;}
	.st12{display:inline;fill:#FFFFFF;stroke:#000000;stroke-width:2;stroke-linejoin:round;stroke-miterlimit:10;}
	.st13{display:inline;fill:none;stroke:#000000;stroke-width:2;stroke-linecap:round;stroke-linejoin:round;stroke-miterlimit:10;}
	.st14{display:inline;fill:none;stroke:#000000;stroke-linejoin:round;stroke-miterlimit:10;}
	.st15{fill:none;stroke:#000000;stroke-linejoin:round;stroke-miterlimit:10;}
	.st16{fill:none;stroke:#000000;stroke-width:5;stroke-linejoin:round;stroke-miterlimit:10;}
	.st17{display:none;fill:none;stroke:#000000;stroke-width:4;stroke-linejoin:round;stroke-miterlimit:10;}
	.st18{display:none;fill:none;stroke:#000000;stroke-width:4;stroke-linecap:round;stroke-linejoin:round;stroke-miterlimit:10;}
	.st19{fill:none;stroke:#000000;stroke-width:4;stroke-linecap:round;stroke-linejoin:round;stroke-miterlimit:10;}
</style>

<g id="Calque_2_1_" transform="translate(-647,-939.34484)" style="display:inline">
	<path class="st2" d="m 651,1018.2 c 12.9,-0.4 25.8,-0.9 38.7,-1.3" id="path1" />
	<path class="st2" d="m 654,1042 c 12.6,-6.6 25.3,-13.2 37.9,-19.8" id="path2" />
	<ellipse transform="matrix(0.6447,-0.7645,0.7645,0.6447,-529.3889,994.3997)" class="st3" cx="805" cy="1066.7" rx="87.699997" ry="126" id="ellipse2" />
	<rect x="874.5" y="986.79999" transform="matrix(0.8456,-0.5339,0.5339,0.8456,-415.9344,634.7301)" class="st4" width="29.299999" height="99" id="rect2" />
	<path class="st5" d="m 836,1097 c 45.2,-13 86.1,-15.6 111.7,-26.3 10.7,-4.5 31.1,-19.8 34.1,-28.7 1.7,-5 4.7,-7 0.6,-12.2 -4.3,-5.5 -6.3,-12.2 -21,-9.8 -10.7,1.8 -27.9,8.6 -28.4,7.3 -0.9,-2.1 16.8,-9.3 16.1,-16.3 -0.5,-4.7 -10,-8.3 -18,-9 -19.1,-1.6 -35,13.4 -36,12 -0.8,-1.2 11.9,-8.9 18,-24 2.1,-5.3 -0.1,-3.8 -1.9,-6.4 -5.4,-7.7 -32.9,-1 -51.1,8.4 -12.6,6.5 -31,18 -50,38" id="path3" />
	<path class="st6" d="M 683,1024" id="path4" />
	<path class="st6" d="M 692.8,1016.2" id="path5" />
	<path class="st7" d="M 884.9,984.1" id="path6" />
	<path class="st8" d="M 949.9,1202.9 C 927,1190.3 904.2,1177.6 881.3,1165" id="path7" />
	<path class="st7" d="m 974.1,1169.9 c -21.3,-9.7 -42.6,-19.4 -63.8,-29" id="path8" />
	<path class="st9" d="m 951.6,1224.3 c -2.7,-8.9 -5.3,-17.7 -8,-26.6" id="path9" />
	<path class="st9" d="m 967.4,1214.6 c -7.8,-5 -15.6,-10 -23.3,-15" id="path10" />
	<path class="st9" d="m 965.5,1196.9 c -7.8,0.2 -15.6,0.5 -23.3,0.7" id="path11" />
	<path class="st9" d="m 987.6,1176.3 c -5.9,-3.2 -11.8,-6.3 -17.7,-9.5" id="path12" />
	<path class="st9" d="m 991.6,1159.9 c -9.1,1.7 -18.2,3.3 -27.3,5" id="path13" />
	<path class="st9" d="m 971.7,1187.6 c -1.6,-6.3 -3.2,-12.7 -4.8,-19" id="path14" />
	<path class="st6" d="M 648,1018.2" id="path15" />
	<circle cx="726.90002" cy="1010.1" r="7.8000002" id="circle15" />
	<path class="st10" d="M 909.6,1079.4" id="path16" />
</g>
<g id="Calque_3" transform="translate(-647,-939.34484)" style="display:inline">
	<path class="st8" d="m 790.2,990.3 c 5.9,-12.4 5.4,-26.3 -1.8,-35.6 -12.3,-15.9 -40,-12.7 -50.7,-0.9 -5.4,6 -3.1,15.3 -1.8,14.1" id="path17" />
	<circle class="st11" cx="785.29999" cy="1003.6" r="12.9" id="circle17" />
</g>
<g id="Calque_4" class="st1" transform="translate(-647,-939.34484)">
	<path class="st12" d="m 842.3,1145.3 h -42.4 c -2.1,0 -3.8,-1.7 -3.8,-3.8 v -22.1 c 0,-2.1 1.7,-3.8 3.8,-3.8 h 42.4 c 2.1,0 3.8,1.7 3.8,3.8 v 22.1 c 0,2.1 -1.7,3.8 -3.8,3.8 z" id="path18" />
	<line class="st13" x1="796.59998" y1="1123.8" x2="832.20001" y2="1123.8" id="line18" />
	<path class="st12" d="m 836.4,1140.2 h -30.6 c -1.3,0 -2.4,-1.1 -2.4,-2.4 v -6.5 c 0,-1.3 1.1,-2.4 2.4,-2.4 h 30.6 c 1.3,0 2.4,1.1 2.4,2.4 v 6.5 c -0.1,1.4 -1.1,2.4 -2.4,2.4 z" id="path19" />
	<path class="st14" d="m 795,1127.9 h -2.6 c -0.6,0 -1,-0.5 -1,-1 v -0.6 c 0,-0.6 0.5,-1 1,-1 h 2.6 c 0.6,0 1,0.5 1,1 v 0.6 c 0,0.6 -0.4,1 -1,1 z" id="path20" />
	<rect x="828.59998" y="1111.2" class="st14" width="10" height="4.6999998" id="rect20" />
	<line class="st13" x1="837" y1="1123.8" x2="845.70001" y2="1123.8" id="line20" />
</g>
<g id="Calque_6" transform="translate(-647,-939.34484)" style="display:inline">
	<path class="st15" d="m 791.4,1126.6 c -23.9,0.3 -20.9,-19.3 -18.9,-23.2 2.3,-4.6 5.1,-5.5 15.3,-11.3 9.2,-5.3 17.4,-15.7 14.5,-21 -3.6,-6.4 -20,0.6 -40.4,-8.3 -8.3,-3.6 -13.1,-8.8 -11.8,-14.3 1.3,-5.5 19.4,-6.3 28.2,-15.1 5.6,-5.6 4.1,-11.8 4.4,-17.1" id="path21" />
</g>
<g id="Calque_5" transform="translate(-647,-939.34484)" style="display:inline">
	<rect x="791.59998" y="1116.7" class="st16" width="30.9" height="20.299999" id="rect21" />
	<circle class="st17" cx="811.79999" cy="1126.9" r="4.3000002" id="circle21" />
</g>
<g id="Calque_7" transform="translate(-647,-939.34484)" style="display:inline">
	<path class="st18" d="M 823.7,1109.8" id="path22" />
	<rect x="805" y="1123.6" transform="matrix(0.5655,-0.8247,0.8247,0.5655,-576.345,1168.8507)" class="st4" width="32.400002" height="15.6" id="rect22" />
	<path class="st19" d="m 822.4,1108.7 c -1.7,16.7 -11.3,28.4 -28.2,35.3" id="path23" />
</g>
</svg>