<?xml version="1.0" encoding="utf-8"?>
<!-- Generator: Adobe Illustrator 25.2.0, SVG Export Plug-In . SVG Version: 6.00 Build 0)  -->
<svg version="1.1" id="Calque_1" xmlns="http://www.w3.org/2000/svg" xmlns:xlink="http://www.w3.org/1999/xlink" x="0px" y="0px"
	 viewBox="0 0 2048 2048" style="enable-background:new 0 0 2048 2048;" xml:space="preserve">
<style type="text/css">
	.st0{fill:#660000;}
	.st1{display:none;}
	.st2{fill:none;stroke:#FF9F00;stroke-width:8;stroke-linecap:round;stroke-miterlimit:10;}
	.st3{fill:#FFFFFF;stroke:#000000;stroke-width:13.0006;stroke-miterlimit:10.0005;}
	.st4{fill:#FFFFFF;}
	.st5{fill:#FFFFFF;stroke:#000000;stroke-width:13;stroke-linecap:round;stroke-miterlimit:10;}
	.st6{fill:none;stroke:#FF0000;stroke-width:8;stroke-miterlimit:10;}
	.st7{fill:none;stroke:#000000;stroke-width:8;stroke-miterlimit:10;}
	.st8{fill:none;stroke:#000000;stroke-width:9;stroke-miterlimit:10;}
	.st9{fill:none;stroke:#000000;stroke-width:9;stroke-linecap:round;stroke-miterlimit:10;}
	.st10{fill:none;stroke:#FFFFFF;stroke-width:13;stroke-miterlimit:10;}
	.st11{fill:#FF9F00;stroke:#000000;stroke-width:9;stroke-miterlimit:10;}
	.st12{display:inline;fill:#FFFFFF;stroke:#000000;stroke-width:2;stroke-linejoin:round;stroke-miterlimit:10;}
	.st13{display:inline;fill:none;stroke:#000000;stroke-width:2;stroke-linecap:round;stroke-linejoin:round;stroke-miterlimit:10;}
	.st14{display:inline;fill:none;stroke:#000000;stroke-linejoin:round;stroke-miterlimit:10;}
	.st15{fill:none;stroke:#000000;stroke-linejoin:round;stroke-miterlimit:10;}
	.st16{fill:none;stroke:#000000;stroke-width:5;stroke-linejoin:round;stroke-miterlimit:10;}
	.st17{display:none;fill:none;stroke:#000000;stroke-width:4;stroke-linejoin:round;stroke-miterlimit:10;}
	.st18{display:none;fill:none;stroke:#000000;stroke-width:4;stroke-linecap:round;stroke-linejoin:round;stroke-miterlimit:10;}
	.st19{fill:none;stroke:#000000;stroke-width:4;stroke-linecap:round;stroke-linejoin:round;stroke-miterlimit:10;}
</style>
<g id="Calque_8">
	<rect x="558.3" y="801.4" class="st0" width="520.3" height="520.3"/>
</g>
<g id="Calque_1_1_" class="st1">
	
		<image style="display:inline;overflow:visible;enable-background:new    ;" width="350" height="350" xlink:href="../Downloads/dessin-oiseau-qui-vole-cycle-1-10-e1620834595284.jpg"  transform="matrix(1.3143 0 0 1.3143 601 834)">
	</image>
</g>
<g id="Calque_2_1_">
	<path class="st2" d="M651,1018.2c12.9-0.4,25.8-0.9,38.7-1.3"/>
	<path class="st2" d="M654,1042c12.6-6.6,25.3-13.2,37.9-19.8"/>
	
		<ellipse transform="matrix(0.6447 -0.7645 0.7645 0.6447 -529.3889 994.3997)" class="st3" cx="805" cy="1066.7" rx="87.7" ry="126"/>
	
		<rect x="874.5" y="986.8" transform="matrix(0.8456 -0.5339 0.5339 0.8456 -415.9344 634.7301)" class="st4" width="29.3" height="99"/>
	<path class="st5" d="M836,1097c45.2-13,86.1-15.6,111.7-26.3c10.7-4.5,31.1-19.8,34.1-28.7c1.7-5,4.7-7,0.6-12.2
		c-4.3-5.5-6.3-12.2-21-9.8c-10.7,1.8-27.9,8.6-28.4,7.3c-0.9-2.1,16.8-9.3,16.1-16.3c-0.5-4.7-10-8.3-18-9c-19.1-1.6-35,13.4-36,12
		c-0.8-1.2,11.9-8.9,18-24c2.1-5.3-0.1-3.8-1.9-6.4c-5.4-7.7-32.9-1-51.1,8.4c-12.6,6.5-31,18-50,38"/>
	<path class="st6" d="M683,1024"/>
	<path class="st6" d="M692.8,1016.2"/>
	<path class="st7" d="M884.9,984.1"/>
	<path class="st8" d="M949.9,1202.9c-22.9-12.6-45.7-25.3-68.6-37.9"/>
	<path class="st7" d="M974.1,1169.9c-21.3-9.7-42.6-19.4-63.8-29"/>
	<path class="st9" d="M951.6,1224.3c-2.7-8.9-5.3-17.7-8-26.6"/>
	<path class="st9" d="M967.4,1214.6c-7.8-5-15.6-10-23.3-15"/>
	<path class="st9" d="M965.5,1196.9c-7.8,0.2-15.6,0.5-23.3,0.7"/>
	<path class="st9" d="M987.6,1176.3c-5.9-3.2-11.8-6.3-17.7-9.5"/>
	<path class="st9" d="M991.6,1159.9c-9.1,1.7-18.2,3.3-27.3,5"/>
	<path class="st9" d="M971.7,1187.6c-1.6-6.3-3.2-12.7-4.8-19"/>
	<path class="st6" d="M648,1018.2"/>
	<circle cx="726.9" cy="1010.1" r="7.8"/>
	<path class="st10" d="M909.6,1079.4"/>
</g>
<g id="Calque_3">
	<path class="st8" d="M790.2,990.3c5.9-12.4,5.4-26.3-1.8-35.6c-12.3-15.9-40-12.7-50.7-0.9c-5.4,6-3.1,15.3-1.8,14.1"/>
	<circle class="st11" cx="785.3" cy="1003.6" r="12.9"/>
</g>
<g id="Calque_4" class="st1">
	<path class="st12" d="M842.3,1145.3h-42.4c-2.1,0-3.8-1.7-3.8-3.8v-22.1c0-2.1,1.7-3.8,3.8-3.8h42.4c2.1,0,3.8,1.7,3.8,3.8v22.1
		C846.1,1143.6,844.4,1145.3,842.3,1145.3z"/>
	<line class="st13" x1="796.6" y1="1123.8" x2="832.2" y2="1123.8"/>
	<path class="st12" d="M836.4,1140.2h-30.6c-1.3,0-2.4-1.1-2.4-2.4v-6.5c0-1.3,1.1-2.4,2.4-2.4h30.6c1.3,0,2.4,1.1,2.4,2.4v6.5
		C838.7,1139.2,837.7,1140.2,836.4,1140.2z"/>
	<path class="st14" d="M795,1127.9h-2.6c-0.6,0-1-0.5-1-1v-0.6c0-0.6,0.5-1,1-1h2.6c0.6,0,1,0.5,1,1v0.6
		C796,1127.5,795.6,1127.9,795,1127.9z"/>
	<rect x="828.6" y="1111.2" class="st14" width="10" height="4.7"/>
	<line class="st13" x1="837" y1="1123.8" x2="845.7" y2="1123.8"/>
</g>
<g id="Calque_6">
	<path class="st15" d="M791.4,1126.6c-23.9,0.3-20.9-19.3-18.9-23.2c2.3-4.6,5.1-5.5,15.3-11.3c9.2-5.3,17.4-15.7,14.5-21
		c-3.6-6.4-20,0.6-40.4-8.3c-8.3-3.6-13.1-8.8-11.8-14.3s19.4-6.3,28.2-15.1c5.6-5.6,4.1-11.8,4.4-17.1"/>
</g>
<g id="Calque_5">
	<rect x="791.6" y="1116.7" class="st16" width="30.9" height="20.3"/>
	<circle class="st17" cx="811.8" cy="1126.9" r="4.3"/>
</g>
<g id="Calque_7">
	<path class="st18" d="M823.7,1109.8"/>
	
		<rect x="805" y="1123.6" transform="matrix(0.5655 -0.8247 0.8247 0.5655 -576.345 1168.8507)" class="st4" width="32.4" height="15.6"/>
	<path class="st19" d="M822.4,1108.7c-1.7,16.7-11.3,28.4-28.2,35.3"/>
</g>
</svg>
